<svg width="112" height="32" viewBox="0 0 112 32"
    xmlns="http://www.w3.org/2000/svg">
    <path d="M9.68399 30.432C7.52399 30.432 5.64599 29.922 4.04999 28.902C2.45399 27.882 1.36799 26.508 0.791992 24.78L4.75199 22.908C5.25599 23.964 5.93999 24.792 6.80399 25.392C7.66799 25.992 8.62799 26.292 9.68399 26.292C10.452 26.292 11.04 26.136 11.448 25.824C11.856 25.512 12.06 25.08 12.06 24.528C12.06 24.24 11.988 23.994 11.844 23.79C11.7 23.586 11.484 23.4 11.196 23.232C10.908 23.064 10.548 22.92 10.116 22.8L6.76799 21.864C5.15999 21.408 3.92399 20.67 3.05999 19.65C2.19599 18.63 1.76399 17.424 1.76399 16.032C1.76399 14.808 2.07599 13.74 2.69999 12.828C3.32399 11.916 4.19999 11.202 5.32799 10.686C6.45599 10.17 7.75199 9.91199 9.21599 9.91199C11.136 9.91199 12.822 10.362 14.274 11.262C15.726 12.162 16.752 13.428 17.352 15.06L13.356 16.932C13.068 16.116 12.546 15.462 11.79 14.97C11.034 14.478 10.176 14.232 9.21599 14.232C8.51999 14.232 7.97399 14.376 7.57799 14.664C7.18199 14.952 6.98399 15.348 6.98399 15.852C6.98399 16.116 7.05599 16.356 7.19999 16.572C7.34399 16.788 7.57799 16.98 7.90199 17.148C8.22599 17.316 8.62799 17.472 9.10799 17.616L12.24 18.552C13.872 19.032 15.12 19.758 15.984 20.73C16.848 21.702 17.28 22.896 17.28 24.312C17.28 25.536 16.962 26.604 16.326 27.516C15.69 28.428 14.808 29.142 13.68 29.658C12.552 30.174 11.22 30.432 9.68399 30.432Z" fill="currentColor"/>
    <path d="M20.52 30V2.74805H25.92V20.208L23.904 19.56L32.58 10.344H39.24L32.112 18.264L39.204 30H33.084L27.144 20.028L30.276 19.236L24.264 25.788L25.92 22.656V30H20.52Z" fill="currentColor"/>
    <path fill-rule="evenodd" clip-rule="evenodd" d="M41.616 3.18005V8.58005H47.016V3.18005H41.616ZM41.616 10.3441V30.0001H47.016V10.3441H41.616Z" fill="currentColor"/>
    <path d="M50.9761 30V2.74805H56.3761V30H50.9761Z" fill="currentColor"/>
    <path d="M60.3359 30V2.74805H65.7359V30H60.3359Z" fill="currentColor"/>
    <path d="M79.1641 30.432C77.0761 30.432 75.2641 29.97 73.7281 29.046C72.1921 28.122 71.0041 26.88 70.1641 25.32C69.3241 23.76 68.9041 22.032 68.9041 20.136C68.9041 18.168 69.3421 16.416 70.2181 14.88C71.0941 13.344 72.2761 12.132 73.7641 11.244C75.2521 10.356 76.9321 9.91199 78.8041 9.91199C80.3641 9.91199 81.7441 10.158 82.9441 10.65C84.1441 11.142 85.1581 11.832 85.9861 12.72C86.8141 13.608 87.4441 14.634 87.8761 15.798C88.3081 16.962 88.5241 18.228 88.5241 19.596C88.5241 19.98 88.5061 20.358 88.4701 20.73C88.4341 21.102 88.368 21.42 88.272 21.684H73.548V17.724H85.2121L82.6561 19.596C82.8961 18.564 82.8841 17.646 82.6201 16.842C82.3561 16.038 81.8941 15.402 81.2341 14.934C80.5741 14.466 79.7641 14.232 78.8041 14.232C77.8681 14.232 77.0641 14.46 76.3921 14.916C75.7201 15.372 75.2161 16.044 74.8801 16.932C74.5441 17.82 74.4121 18.9 74.4841 20.172C74.3881 21.276 74.5201 22.248 74.8801 23.088C75.2401 23.928 75.7921 24.582 76.5361 25.05C77.2801 25.518 78.1801 25.752 79.2361 25.752C80.1961 25.752 81.0181 25.56 81.7021 25.176C82.3861 24.792 82.9201 24.264 83.3041 23.592L87.6241 25.644C87.2401 26.604 86.6341 27.444 85.8061 28.164C84.9781 28.884 84.0001 29.442 82.8721 29.838C81.7441 30.234 80.5081 30.432 79.1641 30.432Z" fill="currentColor"/>
    <path fill-rule="evenodd" clip-rule="evenodd" d="M95.7959 29.064C97.3079 29.976 99.0239 30.432 100.944 30.432C102.288 30.432 103.536 30.186 104.688 29.694C105.574 29.3157 106.318 28.7989 106.92 28.1437V30H111.96V2.74805H106.56V11.9944C106.045 11.4836 105.439 11.0595 104.742 10.722C103.626 10.182 102.348 9.91205 100.908 9.91205C99.0359 9.91205 97.3439 10.368 95.8319 11.28C94.3199 12.192 93.1199 13.422 92.2319 14.97C91.3439 16.518 90.8999 18.252 90.8999 20.172C90.8999 22.068 91.3379 23.796 92.2139 25.356C93.0899 26.916 94.2839 28.152 95.7959 29.064ZM104.184 24.888C103.44 25.344 102.576 25.572 101.592 25.572C100.608 25.572 99.7259 25.344 98.9459 24.888C98.1659 24.432 97.5599 23.796 97.1279 22.98C96.6959 22.164 96.4799 21.228 96.4799 20.172C96.4799 19.116 96.6959 18.186 97.1279 17.382C97.5599 16.578 98.1659 15.942 98.9459 15.474C99.7259 15.006 100.608 14.772 101.592 14.772C102.576 14.772 103.44 15 104.184 15.456C104.928 15.912 105.51 16.548 105.93 17.364C106.35 18.18 106.56 19.116 106.56 20.172C106.56 21.228 106.35 22.164 105.93 22.98C105.51 23.796 104.928 24.432 104.184 24.888Z" fill="currentColor"/>
</svg>
