<svg width="32" height="32" viewBox="0 0 32 32" fill="none" xmlns="http://www.w3.org/2000/svg">
<path fill-rule="evenodd" clip-rule="evenodd" d="M22.8761 6.7159C22.8634 7.46811 22.5346 8.18022 21.9703 8.6777C21.1606 9.29702 20.0705 9.40561 19.1546 8.95821C18.2387 8.51081 17.6543 7.58423 17.6451 6.56493C17.6617 5.82426 17.9686 5.11975 18.4996 4.60312C18.9731 4.22792 19.5555 4.01631 20.1594 4.00002C20.8807 3.99716 21.5732 4.28235 22.0833 4.79227C22.5934 5.3022 22.8787 5.99466 22.8761 6.7159ZM13.172 9.1902C13.1986 9.17384 13.218 9.16192 13.218 9.13061L13.2126 9.12754C14.996 8.82786 16.827 9.20472 18.3471 10.1843C18.6763 10.3496 18.9954 10.5344 19.3027 10.7376C19.3784 10.7501 19.4486 10.7851 19.5042 10.838H19.4544C19.4285 10.8635 19.4157 10.8761 19.403 10.8889C19.3904 10.9014 19.378 10.914 19.3533 10.9391C20.4256 11.6417 21.7627 11.8087 22.9749 11.3913H23.0255C23.0255 11.3598 23.0448 11.3479 23.0716 11.3314C23.0878 11.3214 23.1068 11.3097 23.1259 11.2909C23.9507 10.9561 24.6532 10.3769 25.1391 9.63102C25.1776 9.55491 25.2295 9.48638 25.2923 9.42871C26.3989 8.57425 28.2603 9.8318 27.3039 11.0893C26.9193 11.6647 26.463 12.1887 25.946 12.6488C24.2736 14.0976 21.9688 14.5741 19.859 13.9071C18.954 15.4666 18.0988 17.0261 17.2428 18.6354C17.5961 18.8362 17.9478 19.0377 18.2497 19.2393L18.1493 19.3397C19.0575 19.9443 19.9602 20.6486 20.5135 21.1022C21.2603 21.655 22.1303 23.5906 22.811 25.1049C23.0012 25.5282 23.1767 25.9186 23.3305 26.2366C23.6055 26.7107 23.5224 27.3111 23.129 27.6927C22.8024 27.9553 22.3748 28.0568 21.965 27.9691C21.5552 27.8814 21.2067 27.6138 21.0162 27.2405C20.904 26.997 20.7761 26.7102 20.6385 26.4014C20.0355 25.0486 19.2442 23.2735 18.7532 22.8648C17.4825 21.8526 16.0768 21.0225 14.5767 20.3987C14.5533 20.3987 14.5166 20.3867 14.4793 20.3744C14.4407 20.3618 14.4016 20.3489 14.3759 20.3489C12.2766 22.9658 8.58698 23.6695 5.67195 22.0088C5.23855 21.7444 4.98192 21.2663 5.00099 20.759C5.02007 20.2516 5.31187 19.7942 5.7639 19.5631C6.21593 19.3319 6.7576 19.3631 7.18009 19.6447C9.49517 20.9528 11.8585 19.2423 12.9659 17.079C14.0227 14.9632 14.8281 13.4573 15.6833 11.8978C13.9721 11.3438 12.4126 11.8457 11.1558 13.6083C10.1994 15.016 7.8353 13.6581 8.84073 12.2496C9.24112 11.6862 9.69624 11.1639 10.1994 10.6901C11.0329 9.97451 12.0388 9.48899 13.1176 9.28157V9.231C13.1366 9.21202 13.1557 9.20027 13.172 9.1902Z" fill="white"/>
</svg>
