<svg width="32" height="32" viewBox="0 0 32 32" fill="none" xmlns="http://www.w3.org/2000/svg">
<path fill-rule="evenodd" clip-rule="evenodd" d="M14 16C12.9 16 12 16.9 12 18C12 19.1 12.9 20 14 20C15.1 20 16 19.1 16 18C16 16.9 15.1 16 14 16ZM10 12C8.9 12 8 12.9 8 14C8 15.1 8.9 16 10 16C11.1 16 12 15.1 12 14C12 12.9 11.1 12 10 12ZM10 20C8.9 20 8 20.9 8 22C8 23.1 8.9 24 10 24C11.1 24 12 23.1 12 22C12 20.9 11.1 20 10 20ZM22 12C23.1 12 24 11.1 24 10C24 8.9 23.1 8 22 8C20.9 8 20 8.9 20 10C20 11.1 20.9 12 22 12ZM18 20C16.9 20 16 20.9 16 22C16 23.1 16.9 24 18 24C19.1 24 20 23.1 20 22C20 20.9 19.1 20 18 20ZM22 16C20.9 16 20 16.9 20 18C20 19.1 20.9 20 22 20C23.1 20 24 19.1 24 18C24 16.9 23.1 16 22 16ZM18 12C16.9 12 16 12.9 16 14C16 15.1 16.9 16 18 16C19.1 16 20 15.1 20 14C20 12.9 19.1 12 18 12ZM14 8C12.9 8 12 8.9 12 10C12 11.1 12.9 12 14 12C15.1 12 16 11.1 16 10C16 8.9 15.1 8 14 8Z" fill="white"/>
</svg>
