<svg width="32" height="32" viewBox="0 0 32 32" fill="none" xmlns="http://www.w3.org/2000/svg">
<path fill-rule="evenodd" clip-rule="evenodd" d="M13 7L11.17 9H8C6.9 9 6 9.9 6 11V23C6 24.1 6.9 25 8 25H24C25.1 25 26 24.1 26 23V11C26 9.9 25.1 9 24 9H20.83L19 7H13ZM19.2 17C19.2 18.7673 17.7673 20.2 16 20.2C14.2327 20.2 12.8 18.7673 12.8 17C12.8 15.2327 14.2327 13.8 16 13.8C17.7673 13.8 19.2 15.2327 19.2 17ZM11 17C11 19.76 13.24 22 16 22C18.76 22 21 19.76 21 17C21 14.24 18.76 12 16 12C13.24 12 11 14.24 11 17Z" fill="white"/>
</svg>
